<svg xmlns="http://www.w3.org/2000/svg" version="1.1" xmlns:xlink="http://www.w3.org/1999/xlink" xmlns:svgjs="http://svgjs.com/svgjs" width="256" height="256" x="0" y="0" viewBox="0 0 24 24" style="enable-background:new 0 0 512 512" xml:space="preserve"><g><path d="M11.362 14h2.016l-.752 6H10.61Zm10.565-6.347L19.883 24H4.117L2.056 7.556A3.021 3.021 0 0 1 5 4h7.615l.5-4H20v2h-5.117l-.251 2H19a3 3 0 0 1 2.928 3.653ZM14.381 6l-.5 4h5.742l.337-2.688a1.068 1.068 0 0 0-.179-.937A1 1 0 0 0 19 6ZM4.024 7.216 4.374 10h7.49l.5-4H5a1.006 1.006 0 0 0-.976 1.216ZM18.117 22l1.254-10H4.625l1.257 10Z" fill="#303030" data-original="#000000"></path></g></svg>