<svg xmlns="http://www.w3.org/2000/svg" version="1.1" xmlns:xlink="http://www.w3.org/1999/xlink" xmlns:svgjs="http://svgjs.com/svgjs" width="256" height="256" x="0" y="0" viewBox="0 0 24 24" style="enable-background:new 0 0 512 512" xml:space="preserve"><g><path d="M24 14.006a2.981 2.981 0 0 0-1-2.219V9a9.01 9.01 0 0 0-9-9h-4a9.01 9.01 0 0 0-9 9v2.787a2.981 2.981 0 0 0-1 2.219v.171a3 3 0 0 0 1 2.249V20a4 4 0 0 0 4 4h14a4 4 0 0 0 4-4v-3.774a2.981 2.981 0 0 0 1-2.22ZM3 9a7.008 7.008 0 0 1 7-7h4a7.008 7.008 0 0 1 7 7v2.006H3Zm18 6.006h-4a11 11 0 0 0-7.212 2.7 1.193 1.193 0 0 1-1.575 0 11 11 0 0 0-5.439-2.556.97.97 0 0 1-.774-.973v-.171a1 1 0 0 1 1-1h18a1 1 0 0 1 0 2ZM21 20a2 2 0 0 1-2 2H5a2 2 0 0 1-2-2v-2.747a8.986 8.986 0 0 1 3.9 1.957 3.176 3.176 0 0 0 4.2 0 9 9 0 0 1 5.9-2.2h4ZM11 5a1 1 0 0 1-2 0 1 1 0 0 1 2 0ZM8 8a1 1 0 0 1-2 0 1 1 0 0 1 2 0Z" fill="#303030" data-original="#000000"></path></g></svg>