<svg xmlns="http://www.w3.org/2000/svg" version="1.1" xmlns:xlink="http://www.w3.org/1999/xlink" xmlns:svgjs="http://svgjs.com/svgjs" width="256" height="256" x="0" y="0" viewBox="0 0 24 24" style="enable-background:new 0 0 512 512" xml:space="preserve"><g><path d="M23 .988a3.385 3.385 0 0 0-2.725-.972C17.577.277 8.493 1.406 4.92 4.979a10 10 0 0 0-.973 12.953L.439 21.439a1.5 1.5 0 0 0 2.122 2.122l3.507-3.508a10 10 0 0 0 12.953-.973c3.623-3.623 4.716-12.68 4.964-15.371A3.388 3.388 0 0 0 23 .988Zm-6.1 15.97a6.991 6.991 0 0 1-8.68.942l8.341-8.34a1.5 1.5 0 0 0-2.122-2.122L6.1 15.78a6.991 6.991 0 0 1 .942-8.68c2.28-2.28 8.709-3.632 13.523-4.1a.391.391 0 0 1 .319.113.385.385 0 0 1 .116.32c-.445 4.792-1.784 11.209-4.1 13.525Z" fill="#303030" data-original="#000000"></path></g></svg>