<svg xmlns="http://www.w3.org/2000/svg" version="1.1" xmlns:xlink="http://www.w3.org/1999/xlink" xmlns:svgjs="http://svgjs.com/svgjs" width="256" height="256" x="0" y="0" viewBox="0 0 24 24" style="enable-background:new 0 0 512 512" xml:space="preserve"><g><path d="m21.713 11 1.578-4.9-3.974-1.252.664-3.863-5.943-1.007-.354 2.041h-3.368L9.962-.022 4.019.985l.664 3.863L.708 6.1 2.287 11H.01l1.925 10.519A3.01 3.01 0 0 0 4.9 23.978h14.217a3.009 3.009 0 0 0 2.967-2.459L24.01 11Zm-.95-3.6L19.6 11h-1.34l.716-4.167Zm-3.1-4.782L16.22 11h-1.2V6.1l.663-3.815ZM11 4.015h2.01V11H11ZM8.321 2.281 8.985 6.1V11H7.78L6.338 2.617ZM3.237 7.4l1.787-.564L5.74 11H4.4Zm16.869 13.762a1 1 0 0 1-.989.819H4.9a1 1 0 0 1-.989-.819L2.418 13H21.6Z" fill="#303030" data-original="#000000"></path></g></svg>