<svg xmlns="http://www.w3.org/2000/svg" version="1.1" xmlns:xlink="http://www.w3.org/1999/xlink" xmlns:svgjs="http://svgjs.com/svgjs" width="256" height="256" x="0" y="0" viewBox="0 0 24 24" style="enable-background:new 0 0 512 512" xml:space="preserve"><g><path d="M23.2.8a2.714 2.714 0 0 0-2.9-.622L0 8.322V9a15.017 15.017 0 0 0 15 15h.676l8.156-20.33A2.708 2.708 0 0 0 23.2.8Zm-2.19 1.245a.715.715 0 0 1 .771.171.7.7 0 0 1 .183.74l-.676 1.684c-5.708-1.956-8.914 6.126-3.466 8.639L15.93 18C9.551 17.97 6.029 14.447 6 8.068ZM17 9a2.655 2.655 0 0 1 3.54-2.5l-1.973 4.918A2.665 2.665 0 0 1 17 9Zm-2.669 12.983A13.019 13.019 0 0 1 2.017 9.667l2.016-.809c.321 6.706 4.4 10.787 11.106 11.109Z" fill="#303030" data-original="#000000"></path><path d="M11 13a2 2 0 0 0 0-4 2 2 0 0 0 0 4Z" fill="#303030" data-original="#000000"></path></g></svg>