<svg xmlns="http://www.w3.org/2000/svg" version="1.1" xmlns:xlink="http://www.w3.org/1999/xlink" xmlns:svgjs="http://svgjs.com/svgjs" width="256" height="256" x="0" y="0" viewBox="0 0 24 24" style="enable-background:new 0 0 512 512" xml:space="preserve"><g><path d="M22.779 14.584A1.981 1.981 0 0 0 24 15v2a3.963 3.963 0 0 1-2.444-.833.944.944 0 0 0-1.111 0 4.059 4.059 0 0 1-4.889 0 .944.944 0 0 0-1.111 0 4.059 4.059 0 0 1-4.889 0 .944.944 0 0 0-1.111 0 4.059 4.059 0 0 1-4.889 0 .944.944 0 0 0-1.111 0A3.963 3.963 0 0 1 0 17v-2a1.981 1.981 0 0 0 1.222-.417 2.945 2.945 0 0 1 3.557 0 2.033 2.033 0 0 0 2.443 0 2.945 2.945 0 0 1 3.557 0 2.033 2.033 0 0 0 2.443 0 2.945 2.945 0 0 1 3.557 0 2.033 2.033 0 0 0 2.443 0 2.945 2.945 0 0 1 3.557.001ZM24 7.205V13H0V6.921L15.243.254a2.981 2.981 0 0 1 3.481.8ZM4.807 7h16.384L17.2 2.351a1 1 0 0 0-1.161-.266ZM22 11V9H2v2ZM0 18h24v3a3 3 0 0 1-3 3H3a3 3 0 0 1-3-3Zm2 3a1 1 0 0 0 1 1h18a1 1 0 0 0 1-1v-1H2Z" fill="#303030" data-original="#000000"></path></g></svg>